<?xml version="1.0" encoding="iso-8859-1"?>
<!-- Generator: Adobe Illustrator 18.0.0, SVG Export Plug-In . SVG Version: 6.00 Build 0)  -->
<!DOCTYPE svg PUBLIC "-//W3C//DTD SVG 1.1//EN" "http://www.w3.org/Graphics/SVG/1.1/DTD/svg11.dtd">
<svg version="1.1" id="_x31_" xmlns="http://www.w3.org/2000/svg" xmlns:xlink="http://www.w3.org/1999/xlink" x="0px" y="0px"
	 viewBox="0 0 512 512" style="enable-background:new 0 0 512 512;" xml:space="preserve">
<g>
	<rect style="fill:#9AD4DA;" width="512" height="512"/>
	<path style="opacity:0.1;fill:#040000;" d="M512,177.408V512H177.613l-77.722-77.721l-7.168-7.169l-3.379-3.379l-6.093-6.092
		V121.702h-0.154V90.88h0.307c-0.205-0.769-0.307-1.587-0.307-2.406c0-5.94,4.813-10.804,10.803-10.804h318.362L512,177.408z"/>
	<g>
		<path style="fill:#44494F;" d="M428.902,88.474v345.805H83.251V121.702h-0.154V90.88h0.307c-0.205-0.769-0.307-1.587-0.307-2.406
			c0-5.94,4.813-10.804,10.803-10.804h324.198C424.09,77.67,428.902,82.534,428.902,88.474z"/>
		<rect x="89.35" y="120.012" style="fill:#FFFFFF;" width="333.3" height="307.108"/>
		<rect x="89.35" y="120.012" style="opacity:0.06;fill:#0D0D0D;" width="333.3" height="14.024"/>
		<g>
			<ellipse style="fill:#8BC66F;" cx="168.069" cy="99.669" rx="8.2" ry="8.729"/>
			<ellipse style="fill:#F4DB6D;" cx="138.238" cy="99.669" rx="8.2" ry="8.729"/>
			<ellipse style="fill:#E06276;" cx="108.408" cy="99.669" rx="8.2" ry="8.729"/>
		</g>
		<g style="opacity:0.5;">
			<g>
				<rect x="175.588" y="329.319" style="fill:#CDE3DF;" width="43.775" height="36.549"/>
				<g>
					<rect x="226.316" y="358.282" style="fill:#CDE3DF;" width="29.252" height="5.034"/>
					<rect x="226.316" y="330.803" style="fill:#CDE3DF;" width="60.422" height="5.263"/>
					<rect x="226.316" y="344.485" style="fill:#CDE3DF;" width="60.422" height="5.263"/>
				</g>
			</g>
			<g>
				<rect x="175.588" y="329.319" style="opacity:0.5;fill:#C9E5E1;" width="43.775" height="36.549"/>
				<g style="opacity:0.5;">
					<rect x="226.316" y="358.282" style="fill:#C9E5E1;" width="29.252" height="5.034"/>
					<rect x="226.316" y="330.803" style="fill:#C9E5E1;" width="60.422" height="5.263"/>
					<rect x="226.316" y="344.485" style="fill:#C9E5E1;" width="60.422" height="5.263"/>
				</g>
			</g>
		</g>
		<rect x="225.789" y="400.549" style="opacity:0.5;fill:#CDE3DF;" width="60.422" height="5.263"/>
		<g>
			<rect x="104.568" y="207.553" style="opacity:0.5;fill:#CDE3DF;" width="61.811" height="17.223"/>
			<rect x="104.568" y="235.927" style="opacity:0.5;fill:#CDE3DF;" width="61.811" height="17.223"/>
			<rect x="104.568" y="264.301" style="opacity:0.5;fill:#CDE3DF;" width="61.811" height="17.223"/>
			<rect x="104.568" y="292.674" style="opacity:0.5;fill:#CDE3DF;" width="61.811" height="17.223"/>
		</g>
		<rect x="103.259" y="181.516" style="opacity:0.5;fill:#CDE3DF;" width="305.482" height="14.597"/>
		<rect x="103.259" y="381.989" style="opacity:0.5;fill:#CDE3DF;" width="305.482" height="3.077"/>
		<g style="opacity:0.5;">
			<g>
				<rect x="298.693" y="328.842" style="fill:#CDE3DF;" width="43.775" height="36.549"/>
				<g>
					<rect x="349.421" y="357.805" style="fill:#CDE3DF;" width="29.252" height="5.034"/>
					<rect x="349.421" y="330.327" style="fill:#CDE3DF;" width="60.422" height="5.263"/>
					<rect x="349.421" y="344.009" style="fill:#CDE3DF;" width="60.422" height="5.263"/>
				</g>
			</g>
			<g>
				<rect x="298.693" y="328.842" style="opacity:0.5;fill:#C9E5E1;" width="43.775" height="36.549"/>
				<g style="opacity:0.5;">
					<rect x="349.421" y="357.805" style="fill:#C9E5E1;" width="29.252" height="5.034"/>
					<rect x="349.421" y="330.327" style="fill:#C9E5E1;" width="60.422" height="5.263"/>
					<rect x="349.421" y="344.009" style="fill:#C9E5E1;" width="60.422" height="5.263"/>
				</g>
			</g>
		</g>
		<path style="fill:#7BCAD4;" d="M377.196,152.152c-0.473-2.02-1.453-3.888-2.833-5.425c-1.381-1.54-3.162-2.748-5.245-3.442
			c-0.215-0.072-0.432-0.139-0.653-0.199c-1.957-0.535-3.93-0.563-5.786-0.168c-2.195,0.466-4.223,1.526-5.856,3.052l9.06,9.152
			l0.021,0.022h0l-0.021-0.022l-0.016,0.059l0,0l0.016-0.059l-9.06-9.152c-1.606,1.502-2.832,3.453-3.454,5.731
			c-0.623,2.277-0.56,4.58,0.058,6.69c0.63,2.145,1.836,4.089,3.49,5.607c0.014,0.013,0.027,0.026,0.043,0.038
			c1.388,1.265,3.087,2.231,5.023,2.762c0.221,0.06,0.442,0.113,0.663,0.161c2.145,0.463,4.295,0.327,6.266-0.294
			c0.018-0.006,0.036-0.012,0.054-0.019c1.95-0.624,3.724-1.727,5.146-3.211l0,0l0,0l0,0l0,0c1.367-1.429,2.41-3.209,2.968-5.252
			C377.637,156.141,377.646,154.078,377.196,152.152z"/>
		<path style="fill:#4F9FD8;" d="M405.257,152.152c-0.473-2.02-1.453-3.888-2.833-5.425c-1.381-1.54-3.162-2.748-5.245-3.442
			c-0.215-0.072-0.432-0.139-0.653-0.199c-1.957-0.535-3.93-0.563-5.786-0.168c-2.195,0.466-4.223,1.526-5.856,3.052l9.06,9.152
			l0.021,0.022h-0.001l-0.02-0.022l-0.016,0.059l0,0l0.016-0.059l-9.06-9.152c-1.606,1.502-2.832,3.453-3.454,5.731
			c-0.623,2.277-0.561,4.58,0.058,6.69c0.63,2.145,1.836,4.089,3.49,5.607c0.014,0.013,0.027,0.026,0.043,0.038
			c1.388,1.265,3.087,2.231,5.023,2.762c0.221,0.06,0.442,0.113,0.663,0.161c2.145,0.463,4.295,0.327,6.266-0.294
			c0.018-0.006,0.036-0.012,0.054-0.019c1.95-0.624,3.724-1.727,5.146-3.211l0,0l0,0l0,0l0,0c1.368-1.429,2.41-3.209,2.968-5.252
			C405.698,156.141,405.707,154.078,405.257,152.152z"/>
		<g>
			<path style="fill:#44494F;" d="M217.242,169.421V149.76h-3.943v22.784h16.384v-3.122H217.242z"/>
			<path style="fill:#44494F;" d="M251.699,157.951c-0.051-0.87-0.154-1.689-0.307-2.405c-0.205-0.717-0.461-1.383-0.819-1.946
				c-0.307-0.614-0.819-1.178-1.434-1.741c-0.87-0.768-1.843-1.331-2.919-1.74c-1.075-0.359-2.355-0.564-3.738-0.564
				c-1.433,0-2.713,0.205-3.789,0.564c-1.075,0.409-2.048,0.973-2.919,1.74c-0.614,0.564-1.126,1.128-1.433,1.741
				c-0.358,0.564-0.614,1.229-0.819,1.946c-0.153,0.716-0.256,1.535-0.307,2.405c0,0.923-0.051,1.997-0.051,3.175
				c0,1.177,0.051,2.252,0.051,3.175c0.051,0.87,0.154,1.689,0.307,2.406c0.205,0.716,0.461,1.381,0.819,1.996
				c0.307,0.564,0.819,1.177,1.433,1.69c0.87,0.767,1.843,1.331,2.919,1.74c1.075,0.41,2.355,0.564,3.789,0.564
				c1.383,0,2.663-0.154,3.738-0.564c1.075-0.409,2.048-0.973,2.919-1.74c0.614-0.513,1.126-1.126,1.434-1.69
				c0.358-0.615,0.614-1.28,0.819-1.996c0.154-0.717,0.256-1.536,0.307-2.406c0-0.923,0.051-1.997,0.051-3.175
				C251.75,159.949,251.699,158.874,251.699,157.951z M247.757,163.994c0,0.768-0.103,1.383-0.205,1.945
				c-0.102,0.512-0.256,0.923-0.461,1.28c-0.205,0.359-0.461,0.666-0.768,0.972c-0.512,0.461-1.075,0.82-1.741,1.076
				c-0.614,0.256-1.331,0.359-2.099,0.359c-0.819,0-1.536-0.103-2.15-0.359c-0.666-0.256-1.229-0.615-1.741-1.076
				c-0.307-0.306-0.563-0.614-0.768-0.972c-0.205-0.357-0.359-0.768-0.461-1.331c-0.103-0.511-0.205-1.177-0.205-1.945
				c-0.051-0.716-0.051-1.69-0.051-2.816c0-1.126,0-2.099,0.051-2.868c0-0.768,0.102-1.382,0.205-1.894
				c0.102-0.564,0.256-0.974,0.461-1.331c0.205-0.359,0.461-0.718,0.768-1.025c1.024-0.921,2.304-1.381,3.891-1.381
				c1.536,0,2.816,0.46,3.84,1.381c0.307,0.307,0.563,0.615,0.768,0.974c0.205,0.359,0.359,0.819,0.461,1.331
				c0.102,0.563,0.205,1.177,0.205,1.945c0.051,0.769,0.051,1.741,0.051,2.868C247.808,162.253,247.808,163.226,247.757,163.994z"/>
			<path style="fill:#44494F;" d="M265.882,160.205v2.969h5.53v1.23c0,0.768-0.103,1.432-0.307,1.996
				c-0.154,0.614-0.512,1.126-0.973,1.639c-0.512,0.511-1.126,0.921-1.894,1.178c-0.717,0.307-1.536,0.41-2.355,0.41
				c-1.536,0-2.816-0.461-3.84-1.383c-0.307-0.307-0.563-0.615-0.768-1.025c-0.205-0.357-0.358-0.768-0.512-1.28
				c-0.103-0.563-0.154-1.178-0.205-1.945c-0.051-0.768-0.051-1.741-0.051-2.867c0-1.126,0-2.099,0.051-2.868
				c0.051-0.768,0.102-1.382,0.205-1.894c0.154-0.564,0.307-0.974,0.512-1.331c0.205-0.359,0.461-0.718,0.768-1.025
				c1.024-0.921,2.304-1.381,3.84-1.381c1.434,0,2.611,0.359,3.533,1.024c0.922,0.716,1.587,1.69,1.894,2.917h3.943
				c-0.205-0.921-0.512-1.842-0.973-2.712c-0.512-0.82-1.126-1.587-1.946-2.253c-0.768-0.615-1.69-1.128-2.816-1.485
				c-1.075-0.41-2.304-0.564-3.635-0.564c-1.434,0-2.663,0.205-3.789,0.564c-1.075,0.409-2.048,0.973-2.867,1.74
				c-0.666,0.564-1.126,1.128-1.485,1.741c-0.358,0.564-0.614,1.229-0.768,1.946c-0.205,0.716-0.307,1.535-0.307,2.405
				c-0.051,0.923-0.051,1.997-0.051,3.175c0,1.177,0,2.252,0.051,3.175c0,0.87,0.103,1.689,0.307,2.406
				c0.153,0.716,0.41,1.381,0.768,1.996c0.358,0.564,0.819,1.177,1.485,1.69c0.819,0.767,1.792,1.331,2.867,1.74
				c1.126,0.41,2.355,0.564,3.789,0.564c1.383,0,2.663-0.205,3.84-0.614c1.229-0.41,2.304-1.076,3.277-1.946
				c0.819-0.819,1.434-1.741,1.792-2.714c0.358-0.973,0.512-2.253,0.512-3.738v-3.481H265.882z"/>
			<path style="fill:#44494F;" d="M298.65,157.951c-0.051-0.87-0.154-1.689-0.307-2.405c-0.205-0.717-0.461-1.383-0.768-1.946
				c-0.359-0.614-0.87-1.178-1.485-1.741c-0.871-0.768-1.844-1.331-2.918-1.74c-1.075-0.359-2.355-0.564-3.738-0.564
				c-1.433,0-2.713,0.205-3.789,0.564c-1.075,0.409-2.048,0.973-2.918,1.74c-0.614,0.564-1.126,1.128-1.433,1.741
				c-0.358,0.564-0.614,1.229-0.819,1.946c-0.153,0.716-0.256,1.535-0.307,2.405c0,0.923-0.051,1.997-0.051,3.175
				c0,1.177,0.051,2.252,0.051,3.175c0.051,0.87,0.154,1.689,0.307,2.406c0.205,0.716,0.461,1.381,0.819,1.996
				c0.307,0.564,0.819,1.177,1.433,1.69c0.871,0.767,1.844,1.331,2.918,1.74c1.075,0.41,2.355,0.564,3.789,0.564
				c1.383,0,2.663-0.154,3.738-0.564c1.075-0.409,2.048-0.973,2.918-1.74c0.614-0.513,1.126-1.126,1.485-1.69
				c0.307-0.615,0.563-1.28,0.768-1.996c0.153-0.717,0.256-1.536,0.307-2.406c0-0.923,0.051-1.997,0.051-3.175
				C298.701,159.949,298.65,158.874,298.65,157.951z M294.707,163.994c0,0.768-0.102,1.383-0.205,1.945
				c-0.103,0.512-0.256,0.923-0.461,1.28c-0.205,0.359-0.461,0.666-0.768,0.972c-0.512,0.461-1.075,0.82-1.741,1.076
				c-0.614,0.256-1.331,0.359-2.099,0.359c-0.819,0-1.536-0.103-2.15-0.359c-0.666-0.256-1.229-0.615-1.741-1.076
				c-0.307-0.306-0.563-0.614-0.768-0.972c-0.205-0.357-0.358-0.768-0.461-1.331c-0.102-0.511-0.205-1.177-0.205-1.945
				c-0.051-0.716-0.051-1.69-0.051-2.816c0-1.126,0-2.099,0.051-2.868c0-0.768,0.102-1.382,0.205-1.894
				c0.103-0.564,0.256-0.974,0.461-1.331c0.205-0.359,0.461-0.718,0.768-1.025c1.024-0.921,2.304-1.381,3.891-1.381
				c1.536,0,2.816,0.46,3.84,1.381c0.307,0.307,0.563,0.615,0.768,0.974c0.205,0.359,0.358,0.819,0.461,1.331
				c0.102,0.563,0.205,1.177,0.205,1.945c0.051,0.769,0.051,1.741,0.051,2.868C294.758,162.253,294.758,163.226,294.707,163.994z"/>
		</g>
		<g>
			<rect x="175.378" y="207.815" style="fill:#CCE3AE;" width="233.363" height="112.971"/>
			<ellipse style="opacity:0.8;fill:#F9F8C9;" cx="281.213" cy="229.707" rx="16.778" ry="16.382"/>
			<g style="opacity:0.5;">
				<path style="fill:#7BC48E;" d="M309.409,320.786H175.588l47.573-54.951c10.624-12.284,28.052-12.284,38.676,0l18.056,20.885
					L309.409,320.786z"/>
			</g>
			<g style="opacity:0.5;">
				<path style="fill:#7BC48E;" d="M408.741,296.17v24.617H252.347l29.625-34.066l39.406-45.265
					c10.915-12.615,28.869-12.615,39.783,0L408.741,296.17z"/>
			</g>
		</g>
	</g>
</g>
</svg>
